<svg version="1.2" xmlns="http://www.w3.org/2000/svg" viewBox="0 0 305 162" width="305" height="162">
	<title>Anastasiia Yalovets (1)-svg</title>
	<style>
		.s0 { fill: none;stroke: #000000;stroke-width: 3 } 
		.s1 { fill: #000000 } 
	</style>
	<path id="Layer" class="s0" d="m140.2 128.9l20.6-122.8"/>
	<g id="Layer">
		<g id="Layer">
			<g id="Layer">
				<path id="Layer" class="s1" d="m221.7 39.8h15.2v2h-4.1q-1.6 0-2.1 1.6l-17.2 41.3v22q0 1.6 1.6 1.6h8.1v2h-28.5v-2h8.1q1.6 0 1.6-1.6v-22.1l-19.1-41.2q-0.7-1.6-2.1-1.6h-4.1v-2h21.3v2h-5.6l17.2 37.2 15.3-37.2h-5.6z"/>
			</g>
		</g>
	</g>
	<g id="Layer">
		<g id="Layer">
			<g id="Layer">
				<path id="Layer" fill-rule="evenodd" class="s1" d="m11.2 152.8h-4.7l-1.3 3.2h-1.6l5.3-12.8h0.1l5.4 12.8h-1.9zm-0.6-1.4l-1.7-4.5-1.9 4.5z"/>
			</g>
		</g>
	</g>
	<g id="Layer">
		<g id="Layer">
			<g id="Layer">
				<path id="Layer" class="s1" d="m33.1 143.7v12.7l-9-9.1v8.7h-1.7v-12.6h0.1l9 9.2v-8.9z"/>
			</g>
		</g>
	</g>
	<g id="Layer">
		<g id="Layer">
			<g id="Layer">
				<path id="Layer" fill-rule="evenodd" class="s1" d="m48.9 152.8h-4.8l-1.3 3.2h-1.6l5.4-12.8h0.1l5.3 12.8h-1.9zm-0.5-1.4l-1.8-4.5-1.8 4.5z"/>
			</g>
		</g>
	</g>
	<g id="Layer">
		<g id="Layer">
			<g id="Layer">
				<path id="Layer" class="s1" d="m66.4 145.9q-0.6-0.3-1.4-0.5-0.7-0.2-1.4-0.2-1 0-1.6 0.4-0.6 0.4-0.6 1.2 0 0.8 0.7 1.3 0.7 0.5 2 0.9 0.9 0.4 1.6 0.8 0.7 0.4 1.1 1.1 0.4 0.7 0.4 1.8 0 1-0.5 1.8-0.5 0.8-1.4 1.2-0.9 0.5-2.1 0.5-1.2 0-2.2-0.4-1.1-0.4-1.9-0.9l0.8-1.3q0.6 0.5 1.5 0.8 0.9 0.3 1.6 0.3 1 0 1.8-0.5 0.7-0.5 0.7-1.5 0-0.9-0.6-1.4-0.6-0.5-1.8-0.9-1-0.4-1.7-0.8-0.7-0.3-1.2-1-0.5-0.7-0.5-1.6 0-1.5 1-2.4 1.1-0.9 2.7-0.9 2 0 3.7 1z"/>
			</g>
		</g>
	</g>
	<g id="Layer">
		<g id="Layer">
			<g id="Layer">
				<path id="Layer" class="s1" d="m83 143.7v1.6h-3.3v10.7h-1.7v-10.7h-3.2v-1.6z"/>
			</g>
		</g>
	</g>
	<g id="Layer">
		<g id="Layer">
			<g id="Layer">
				<path id="Layer" fill-rule="evenodd" class="s1" d="m97.8 152.8h-4.7l-1.3 3.2h-1.7l5.4-12.8h0.1l5.4 12.8h-1.9zm-0.6-1.4l-1.7-4.5-1.9 4.5z"/>
			</g>
		</g>
	</g>
	<g id="Layer">
		<g id="Layer">
			<g id="Layer">
				<path id="Layer" class="s1" d="m115.4 145.9q-0.7-0.3-1.4-0.5-0.8-0.2-1.5-0.2-1 0-1.6 0.4-0.5 0.4-0.5 1.2 0 0.8 0.7 1.3 0.6 0.5 1.9 0.9 1 0.4 1.6 0.8 0.7 0.4 1.1 1.1 0.4 0.7 0.4 1.8 0 1-0.5 1.8-0.4 0.8-1.3 1.2-1 0.5-2.2 0.5-1.1 0-2.2-0.4-1-0.4-1.8-0.9l0.7-1.3q0.6 0.5 1.5 0.8 0.9 0.3 1.7 0.3 1 0 1.7-0.5 0.7-0.5 0.7-1.5 0-0.9-0.6-1.4-0.6-0.5-1.7-0.9-1.1-0.4-1.8-0.8-0.7-0.3-1.2-1-0.4-0.7-0.4-1.6 0-1.5 1-2.4 1-0.9 2.6-0.9 2 0 3.7 1z"/>
			</g>
		</g>
	</g>
	<g id="Layer">
		<g id="Layer">
			<g id="Layer">
				<path id="Layer" class="s1" d="m126.3 143.7v12.3h-1.7v-12.3z"/>
			</g>
		</g>
	</g>
	<g id="Layer">
		<g id="Layer">
			<g id="Layer">
				<path id="Layer" class="s1" d="m137.2 143.7v12.3h-1.6v-12.3z"/>
			</g>
		</g>
	</g>
	<g id="Layer">
		<g id="Layer">
			<g id="Layer">
				<path id="Layer" fill-rule="evenodd" class="s1" d="m153 152.8h-4.8l-1.3 3.2h-1.6l5.4-12.8h0.1l5.3 12.8h-1.9zm-0.5-1.4l-1.8-4.5-1.8 4.5z"/>
			</g>
		</g>
	</g>
	<g id="Layer">
		<g id="Layer">
			<g id="Layer">
			</g>
		</g>
	</g>
	<g id="Layer">
		<g id="Layer">
			<g id="Layer">
				<path id="Layer" class="s1" d="m184.8 143.7l-4.6 8.2v4.1h-1.7v-4.1l-4.5-8.2h2l3.4 6.4 3.4-6.4z"/>
			</g>
		</g>
	</g>
	<g id="Layer">
		<g id="Layer">
			<g id="Layer">
				<path id="Layer" fill-rule="evenodd" class="s1" d="m199.2 152.8h-4.7l-1.3 3.2h-1.6l5.3-12.8h0.1l5.4 12.8h-1.9zm-0.6-1.4l-1.7-4.5-1.8 4.5z"/>
			</g>
		</g>
	</g>
	<g id="Layer">
		<g id="Layer">
			<g id="Layer">
				<path id="Layer" class="s1" d="m212.1 143.7v10.7h6.3v1.6h-8v-12.3z"/>
			</g>
		</g>
	</g>
	<g id="Layer">
		<g id="Layer">
			<g id="Layer">
				<path id="Layer" fill-rule="evenodd" class="s1" d="m226 149.9q0-1.7 0.8-3.1 0.9-1.5 2.3-2.3 1.5-0.9 3.2-0.9 1.6 0 3.1 0.9 1.4 0.8 2.3 2.3 0.9 1.4 0.9 3.1 0 1.7-0.9 3.2-0.8 1.4-2.3 2.2-1.4 0.9-3.1 0.9-1.7 0-3.2-0.8-1.4-0.9-2.3-2.3-0.8-1.5-0.8-3.2zm1.7 0q0 1.3 0.6 2.4 0.6 1 1.7 1.6 1 0.7 2.3 0.7 1.3 0 2.3-0.6 1.1-0.7 1.6-1.7 0.7-1.1 0.7-2.4 0-1.3-0.7-2.4-0.6-1-1.6-1.7-1.1-0.6-2.3-0.6-1.3 0-2.3 0.6-1.1 0.7-1.7 1.8-0.6 1.1-0.6 2.3z"/>
			</g>
		</g>
	</g>
	<g id="Layer">
		<g id="Layer">
			<g id="Layer">
				<path id="Layer" class="s1" d="m256.9 143.7l-5.5 12.9-5.4-12.9h2l3.5 8.9 3.4-8.9z"/>
			</g>
		</g>
	</g>
	<g id="Layer">
		<g id="Layer">
			<g id="Layer">
				<path id="Layer" class="s1" d="m273 143.7v1.6h-6.3v3.8h5.7v1.6h-5.7v3.7h6.6v1.6h-8.3v-12.3z"/>
			</g>
		</g>
	</g>
	<g id="Layer">
		<g id="Layer">
			<g id="Layer">
				<path id="Layer" class="s1" d="m289.1 143.7v1.6h-3.2v10.7h-1.7v-10.7h-3.2v-1.6z"/>
			</g>
		</g>
	</g>
	<g id="Layer">
		<g id="Layer">
			<g id="Layer">
				<path id="Layer" class="s1" d="m303.9 145.9q-0.7-0.3-1.4-0.5-0.8-0.2-1.5-0.2-1 0-1.5 0.4-0.6 0.4-0.6 1.2 0 0.8 0.7 1.3 0.7 0.5 1.9 0.9 1 0.4 1.6 0.8 0.7 0.4 1.1 1.1 0.5 0.7 0.5 1.8 0 1-0.5 1.8-0.5 0.8-1.4 1.2-0.9 0.5-2.2 0.5-1.1 0-2.2-0.4-1-0.4-1.8-0.9l0.7-1.3q0.6 0.5 1.5 0.8 0.9 0.3 1.7 0.3 1 0 1.7-0.5 0.7-0.5 0.7-1.5 0-0.9-0.6-1.4-0.6-0.5-1.7-0.9-1.1-0.4-1.8-0.8-0.6-0.3-1.1-1-0.5-0.7-0.5-1.6 0-1.5 1-2.4 1-0.9 2.6-0.9 2 0 3.7 1z"/>
			</g>
		</g>
	</g>
	<g id="Layer">
		<g id="Layer">
			<g id="Layer">
				<path id="Layer" fill-rule="evenodd" class="s1" d="m119.6 107.2h-22.9v-2h7.2l-7.8-21.6h-24.6l-7.9 21.6h7.3v2h-16.9v-2h4.1q1.6 0 2.2-1.6l24.6-67h3.8l24.6 67q0.6 1.6 2.2 1.6h4.1zm-35.7-57.4l-11.2 30.6h22.3z"/>
			</g>
		</g>
	</g>
</svg>