<svg version="1.2" xmlns="http://www.w3.org/2000/svg" viewBox="0 0 69 44" width="69" height="44">
	<title>logo-senorita-svg</title>
	<defs>
		<clipPath clipPathUnits="userSpaceOnUse" id="cp1">
			<path d="m-8.67 21.65h85.63v6.78h-85.63z"/>
		</clipPath>
	</defs>
	<style>
		.s0 { fill: #000000 } 
		.s1 { fill: #ffffff } 
	</style>
	<g id="Layer">
		<g id="Layer">
			<g id="Layer">
				<path id="Layer" fill-rule="evenodd" class="s0" d="m3 35.5v-0.4c3.5 0 5.1-1.6 7-5.8l10.5-24.3c-0.6-1.5-1.1-2.5-1.1-2.5h2.8l11.7 26.8c1.8 4.2 2.9 5.8 6.9 5.8v0.4h-12.6v-0.4c4.3 0 4.8-1.1 3.9-3.7-0.6-1.4-1.3-3.2-2-5h-17.3c-0.6 2-1 3.7-1 4.8 0 3.1 2.1 3.9 6 3.9v0.4zm26.8-9.6c-3.4-8.3-8.3-18.6-9-20.2-1.6 3.6-5.9 13.5-7.9 20.2z"/>
			</g>
		</g>
	</g>
	<g id="Layer">
		<g id="Layer">
			<g id="Layer">
				<path id="Layer" class="s0" d="m40.6 2.6h9.2v0.3h-0.7c-1 0-1.8 0.5-1.8 1.8 0 2.2 6.1 12.2 8.1 16.2 2.3-4.3 7.9-14.3 7.9-16.5 0-1.1-1-1.5-1.9-1.5h-0.9v-0.3h7.1v0.3c-2.5 0-3.3 2.5-6.3 8.2-2 3.9-4.6 8.3-5.8 10.5v4.8c0 6.5 0.2 8.8 3.1 8.8v0.4h-8.9v-0.4c2.8 0 3-2.3 3-8.8v-4.8c-1.1-2.2-3.7-6.6-5.8-10.5-3-5.7-3.8-8.2-6.3-8.2z"/>
			</g>
		</g>
	</g>
	<g id="Clip-Path" clip-path="url(#cp1)">
		<g id="Layer">
			<path id="Layer" class="s1" d="m-8.7 21.6h85.8v7h-85.8z"/>
		</g>
	</g>
	<g id="Layer">
		<g id="Layer">
			<g id="Layer">
				<path id="Layer" class="s0" d="m10.4 26.1c0.5 0.8 1.3 1.2 2.2 1.2 1 0 1.7-0.5 1.7-1.1 0-1.8-3.9-0.8-3.9-2.7 0-0.7 0.7-1.4 2-1.4 0.7 0 1.5 0.2 1.9 0.5l-0.2 0.4c-0.3-0.3-0.9-0.8-1.9-0.8-1 0-1.6 0.5-1.6 1 0 1.9 3.9 0.8 3.9 2.8 0 0.8-0.7 1.4-1.9 1.4-1 0-2-0.3-2.5-1z"/>
			</g>
		</g>
	</g>
	<g id="Layer">
		<g id="Layer">
			<g id="Layer">
				<path id="Layer" class="s0" d="m20.5 22.2v0.5c-0.9-0.4-1.9-0.5-2.7-0.5-0.4 0-0.6 0.4-0.6 0.9v1.3h3.1v0.3h-3.1v1.7c0 0.5 0.2 0.8 0.6 0.8 0.8 0 1.8 0 2.7-0.4v0.5h-4.4v-0.1h0.2c0.4 0 0.5-0.3 0.5-0.8v-3.3c0-0.5-0.1-0.9-0.5-0.9h-0.2z"/>
			</g>
		</g>
	</g>
	<g id="Layer">
		<g id="Layer">
			<g id="Layer">
				<path id="Layer" class="s0" d="m22.1 27.2q0.7 0 0.7-1v-3.6l-0.4-0.4h0.5l3.9 4.5v-1.2c0-2.6-0.3-3.3-1.1-3.3h1.9q-0.7 0-0.7 1v3.6l0.4 0.5h-0.5l-3.9-4.6v1.2c0 2.6 0.3 3.3 1.1 3.3v0.1h-1.9z"/>
			</g>
		</g>
	</g>
	<g id="Layer">
		<g id="Layer">
			<g id="Layer">
				<path id="Layer" fill-rule="evenodd" class="s0" d="m31.8 22.1c1.5 0 2.7 1.2 2.7 2.6 0 1.5-1.2 2.7-2.7 2.7-1.5 0-2.7-1.2-2.7-2.7 0-1.4 1.2-2.6 2.7-2.6zm-0.3 5c1.3 0 2.7-0.9 2.7-2.6 0-1.5-1-2.2-2.1-2.2-1.2 0-2.6 1-2.6 2.7 0 1.5 1 2.1 2 2.1z"/>
			</g>
		</g>
	</g>
	<g id="Layer">
		<g id="Layer">
			<g id="Layer">
				<path id="Layer" fill-rule="evenodd" class="s0" d="m36.1 27.2h0.1c0.5 0 0.6-0.3 0.6-0.8v-3.3c0-0.5-0.1-0.9-0.6-0.9h-0.1 2.9c0.9 0 1.7 0.3 1.7 1.2 0 1.1-1.1 1.3-1.7 1.3h-0.6l2.1 2.6h-0.5l-2.1-2.6h-0.7v1.7c0 0.5 0.1 0.8 0.6 0.8h0.1v0.1h-1.8zm2.7-2.6c0.8 0 1.5-0.4 1.5-1.2 0-0.9-0.7-1.2-1.5-1.2h-1.6v2.4z"/>
			</g>
		</g>
	</g>
	<g id="Layer">
		<g id="Layer">
			<g id="Layer">
				<path id="Layer" class="s0" d="m42.9 22.2h0.3v5.1h-0.3z"/>
			</g>
		</g>
	</g>
	<g id="Layer">
		<g id="Layer">
			<g id="Layer">
				<path id="Layer" class="s0" d="m45.2 22.2h4.5v0.5c-0.7-0.4-1.1-0.4-2.1-0.5v4.2c0 0.5 0.2 0.8 0.6 0.8h0.1v0.1h-1.8v-0.1h0.2c0.4 0 0.5-0.3 0.5-0.8v-4.2c-1 0.1-1.3 0.1-2 0.5z"/>
			</g>
		</g>
	</g>
	<g id="Layer">
		<g id="Layer">
			<g id="Layer">
				<path id="Layer" fill-rule="evenodd" class="s0" d="m51 27.3v-0.1c0.6 0 0.8-0.2 1.1-0.9l1.6-3.7c-0.1-0.3-0.1-0.4-0.1-0.4h0.4l1.8 4.1c0.3 0.7 0.4 0.9 1.1 0.9v0.1h-2v-0.1c0.7 0 0.8-0.1 0.6-0.5q-0.1-0.4-0.3-0.8h-2.7q-0.1 0.5-0.1 0.7c0 0.5 0.3 0.6 0.9 0.6v0.1zm4.2-1.5c-0.6-1.3-1.3-2.9-1.4-3.1-0.3 0.5-0.9 2.1-1.3 3.1z"/>
			</g>
		</g>
	</g>
	<g id="Layer">
		<g id="Layer">
			<g id="Layer">
			</g>
		</g>
	</g>
	<g id="Layer">
		<g id="Layer">
			<g id="Layer">
				<path id="Layer" class="s0" d="m2.6 41.6v-2.5q0.3 0 0.6 0 0.3 0 0.5 0.2 0.3 0.2 0.3 0.5 0 0.3-0.3 0.6-0.3 0.2-0.7 0.2-0.1 0-0.1 0v-0.1q0 0 0 0 0.4 0 0.6-0.2 0.3-0.2 0.3-0.5 0-0.3-0.2-0.4-0.2-0.1-0.5-0.1-0.1 0-0.3 0v2.3z"/>
			</g>
		</g>
	</g>
	<g id="Layer">
		<g id="Layer">
			<g id="Layer">
				<path id="Layer" class="s0" d="m9.3 41.6v-1.2h-1.7v1.2h-0.2v-2.5h0.2v1.1h1.7v-1.1h0.2v2.5z"/>
			</g>
		</g>
	</g>
	<g id="Layer">
		<g id="Layer">
			<g id="Layer">
				<path id="Layer" fill-rule="evenodd" class="s0" d="m13.4 41.3q-0.3-0.4-0.3-0.9 0-0.6 0.3-0.9 0.4-0.4 0.9-0.4 0.5 0 0.9 0.4 0.3 0.3 0.3 0.9 0 0.5-0.3 0.9-0.4 0.4-0.9 0.4-0.5 0-0.9-0.4zm0.1-1.7q-0.2 0.3-0.2 0.8 0 0.5 0.2 0.8 0.3 0.3 0.8 0.3 0.5 0 0.7-0.3 0.3-0.3 0.3-0.8 0-0.5-0.3-0.8-0.2-0.4-0.7-0.4-0.5 0-0.8 0.4z"/>
			</g>
		</g>
	</g>
	<g id="Layer">
		<g id="Layer">
			<g id="Layer">
				<path id="Layer" class="s0" d="m19.6 39.3h-0.9v-0.2h1.9v0.2h-0.9v2.3h-0.1z"/>
			</g>
		</g>
	</g>
	<g id="Layer">
		<g id="Layer">
			<g id="Layer">
				<path id="Layer" fill-rule="evenodd" class="s0" d="m24.1 41.3q-0.3-0.4-0.3-0.9 0-0.6 0.3-0.9 0.4-0.4 0.9-0.4 0.5 0 0.9 0.4 0.3 0.3 0.3 0.9 0 0.5-0.3 0.9-0.4 0.4-0.9 0.4-0.5 0-0.9-0.4zm0.1-1.7q-0.2 0.3-0.2 0.8 0 0.5 0.2 0.8 0.3 0.3 0.8 0.3 0.5 0 0.8-0.3 0.2-0.3 0.3-0.8-0.1-0.5-0.3-0.8-0.3-0.4-0.8-0.4-0.5 0-0.8 0.4z"/>
			</g>
		</g>
	</g>
	<g id="Layer">
		<g id="Layer">
			<g id="Layer">
				<path id="Layer" class="s0" d="m30.9 39.2q-0.5 0-0.8 0.4-0.3 0.3-0.3 0.8 0 0.4 0.4 0.8 0.3 0.3 0.8 0.3 0.4 0 0.6-0.1v-1h0.2v1.1q-0.3 0.2-0.8 0.2-0.6 0-1-0.4-0.3-0.4-0.3-0.9 0-0.6 0.3-0.9 0.3-0.4 0.9-0.4 0.4 0 0.8 0.1v0.2q-0.4-0.2-0.8-0.2z"/>
			</g>
		</g>
	</g>
	<g id="Layer">
		<g id="Layer">
			<g id="Layer">
				<path id="Layer" fill-rule="evenodd" class="s0" d="m35.5 41.6v-2.5q0.3 0 0.5 0 0.4 0 0.6 0.2 0.3 0.2 0.3 0.5 0 0.2-0.2 0.4-0.1 0.2-0.3 0.3 0.2 0.2 0.3 0.5 0.2 0.2 0.3 0.3 0.2 0.2 0.5 0.2v0.2q-0.2 0-0.4-0.1-0.1-0.1-0.2-0.2-0.1-0.1-0.6-0.8-0.4 0-0.7 0v1zm0.7-1.1q0.2 0 0.4-0.2 0.1-0.2 0.1-0.5 0-0.3-0.2-0.4-0.1-0.1-0.4-0.1-0.2 0-0.4 0v1.2q0.3 0 0.5 0z"/>
			</g>
		</g>
	</g>
	<g id="Layer">
		<g id="Layer">
			<g id="Layer">
				<path id="Layer" fill-rule="evenodd" class="s0" d="m40.7 40.7l-0.3 0.9h-0.2l1-2.5h0.1l1.1 2.5h-0.2l-0.4-0.9zm0.6-1.3q0 0 0 0zm0 0q-0.1 0.2-0.1 0.3l-0.4 0.9h1l-0.4-0.9q-0.1-0.3-0.1-0.3 0 0 0 0z"/>
			</g>
		</g>
	</g>
	<g id="Layer">
		<g id="Layer">
			<g id="Layer">
				<path id="Layer" class="s0" d="m45.7 41.6v-2.5q0.3 0 0.6 0 0.3 0 0.6 0.2 0.2 0.2 0.2 0.5 0 0.3-0.3 0.6-0.3 0.2-0.7 0.2-0.1 0-0.1 0v-0.1q0 0 0 0 0.4 0 0.6-0.2 0.3-0.2 0.3-0.5 0-0.3-0.2-0.4-0.2-0.1-0.5-0.1-0.1 0-0.3 0v2.3z"/>
			</g>
		</g>
	</g>
	<g id="Layer">
		<g id="Layer">
			<g id="Layer">
				<path id="Layer" class="s0" d="m52.4 41.6v-1.2h-1.7v1.2h-0.1v-2.5h0.1v1.1h1.7v-1.1h0.2v2.5z"/>
			</g>
		</g>
	</g>
	<g id="Layer">
		<g id="Layer">
			<g id="Layer">
				<path id="Layer" class="s0" d="m56.3 41.6v-2.5h1.2v0.2h-1v0.9h0.9v0.1h-0.9v1.2h1v0.1z"/>
			</g>
		</g>
	</g>
	<g id="Layer">
		<g id="Layer">
			<g id="Layer">
				<path id="Layer" fill-rule="evenodd" class="s0" d="m61 41.6v-2.5q0.3 0 0.5 0 0.4 0 0.6 0.2 0.3 0.2 0.3 0.5 0 0.2-0.2 0.4-0.1 0.2-0.3 0.3 0.2 0.2 0.4 0.5 0.2 0.2 0.2 0.3 0.2 0.2 0.5 0.2v0.2q-0.2 0-0.4-0.1-0.1-0.1-0.2-0.2-0.1-0.1-0.6-0.8-0.4 0-0.6 0v1zm0.6-1.1q0.2 0 0.4-0.2 0.1-0.2 0.1-0.5 0-0.3-0.1-0.4-0.2-0.1-0.5-0.1-0.2 0-0.4 0v1.2q0.3 0 0.5 0z"/>
			</g>
		</g>
	</g>
</svg>